PathFileType	4	(X/Y/Z)	C:/Users/beibeiliu/ov580/test_trc\sequence.27_training_dense_right.trc
DataRate	CameraRate	NumFrames	NumMarkers	Units	OrigDataRate	OrigDataStartFrame	OrigNumFrames
120	120	8	19	mm	120	125	331
Frame#	Time	ThumbCMC			ThumbMCP			ThumbIP			ThumbTip			IndexMCP			IndexPIP			IndexTip			MiddleMCP			MiddlePIP			MiddleTip			RingMCP			RingPIP			RingTip			PinkyMCP			PinkyPIP			PinkyTip			BackHand1			BackHand2			BackHand3	
		X0	Y0	Z0	X1	Y1	Z1	X2	Y2	Z2	X3	Y3	Z3	X4	Y4	Z4	X5	Y5	Z5	X6	Y6	Z6	X7	Y7	Z7	X8	Y8	Z8	X9	Y9	Z9	X10	Y10	Z10	X11	Y11	Z11	X12	Y12	Z12	X13	Y13	Z13	X14	Y14	Z14	X15	Y15	Z15	X16	Y16	Z16	X17	Y17	Z17	X18	Y18	Z18	
124	1.03333	224.779	27.6663	54.815	216.941	51.8589	36.1953	205.692	61.7003	15.2556	191.853	65.1335	-1.86533	230.569	25.646	-11.3216	225.469	41.1977	-28.2778	217.499	60.1715	-40.5059	212.468	13.7758	-18.894	201.105	27.0919	-36.3177	186.662	55.9452	-41.529	191.502	-1.02592	-11.1988	187.007	7.35939	-33.447	183.717	25.087	-49.99	173.029	-10.1922	2.85827	167.641	-10.7849	-14.0461	165.086	-14.5404	-29.3011	199.896	-10.9924	32.1276	203.473	-16.6694	60.5189	226.194	-2.96021	46.4153	
125	1.04167	225.883	32.8145	57.2421	215.059	57.6564	34.1653	204.059	63.4492	15.9679	191.016	66.7407	-4.67167	233.155	28.6858	-6.49818	228.605	45.0737	-25.1034	214.783	64.9633	-38.8927	214.789	10.7594	-15.4138	210.628	26.8782	-40.9177	192.488	47.64	-53.4802	201.506	-0.0532658	-10.4974	193.59	5.27378	-35.5955	191.784	18.0506	-49.8667	183.719	-7.03752	5.407	179.729	-11.0971	-10.3095	175.815	-15.7748	-28.5426	203.495	-12.3661	32.8377	204.34	-14.1742	59.3686	228.473	1.91677	46.9593	
126	1.05	224.059	37.4604	56.5126	212.542	58.8479	35.2554	202.469	65.39	13.1644	189.874	64.74	-3.27094	236.678	33.9649	-4.81835	225.232	48.0274	-26.8123	211.1	62.9247	-38.2326	221.547	11.1094	-16.438	216.144	21.0131	-40.104	202.413	34.8431	-58.5002	206.022	-3.38163	-10.1051	204.102	1.95654	-31.9787	196.805	11.7877	-52.8961	189.517	-10.286	6.82427	185.61	-15.5349	-11.2259	187.912	-19.1562	-30.2194	211.795	-7.85651	34.6169	208.085	-13.5784	61.2597	233.003	4.95702	48.1078	
127	1.05833	223.281	42.1261	56.7859	208.753	57.639	31.8725	198.583	64.2092	13.4912	187.323	62.3168	-7.29528	234.961	35.5334	-5.70218	228.074	53.2657	-25.4403	211.184	67.8069	-37.7576	230.261	15.1444	-12.7654	223.583	20.4132	-39.8622	214.239	31.9657	-62.7219	215.723	0.568852	-7.94286	211.005	2.04806	-35.0879	204.448	10.3029	-51.5625	197.959	-13.8503	3.09117	197.429	-16.1381	-15.3737	198.824	-21.9191	-31.5657	214.058	-6.15219	34.456	213.075	-7.14208	65.4324	231.027	9.6277	52.7911	
128	1.06667	220.567	48.2046	59.185	204.645	60.66	34.542	195.513	62.8522	10.7521	184.453	61.0562	-13.0325	238.781	41.8313	-4.02621	228.886	51.2235	-22.4592	212.543	65.6569	-35.7755	234.122	17.9313	-8.32517	234.376	24.0384	-37.754	224.569	32.5567	-63.0227	222.51	3.32904	-8.95247	219.045	6.79848	-33.9243	211.513	18.4035	-52.7848	203.967	-12.5798	2.82356	207.976	-13.048	-11.7236	210.914	-15.0368	-29.4142	218.014	-2.95251	34.4632	215.891	-8.06029	63.2037	232.359	14.4611	54.9369	
129	1.075	216.155	47.6767	55.7075	201.422	60.4829	29.3955	192.911	64.6143	7.25764	183.192	60.0923	-13.7745	238.161	43.7677	-5.46765	231.051	56.4869	-22.0213	213.086	66.7068	-36.5669	241.272	21.93	-10.2988	239.347	24.7177	-36.4429	233.721	35.955	-61.6947	226.521	6.47043	-6.42733	224.044	9.18629	-29.7496	212.92	22.7377	-51.1872	211.869	-6.57536	6.55544	213.734	-13.9876	-15.5726	217.633	-16.707	-32.4328	222.274	0.159449	37.7917	217.327	-1.69213	66.4197	235.555	19.8499	55.7721	
130	1.08333	212.346	49.5998	57.7751	197.02	62.6645	25.817	191.359	60.1656	3.21533	183.48	54.2361	-15.9255	239.461	48.6225	-0.694911	230.887	60.9937	-19.8579	213.67	65.4889	-37.2468	242.305	23.5016	-9.64871	243.571	30.9398	-34.8589	238.957	37.2031	-57.0825	229.685	9.02936	-6.73683	226.608	16.8033	-31.6377	213.504	30.5325	-48.985	219.66	-4.40021	4.23353	221.733	-10.3541	-10.8087	230.534	-12.8645	-30.8538	227.078	4.73278	39.5652	217.116	-2.67166	64.7785	233.496	23.5698	55.8742	
131	1.09167	209.41	50.5812	54.7765	192.571	60.7374	29.1669	187.405	60.8636	1.08378	182.845	54.1568	-17.2767	240.079	55.1861	4.09404	231.877	62.4268	-18.5754	215.613	71.6645	-35.4784	243.103	28.7122	-2.74637	246.397	35.9989	-33.0662	241.052	39.2447	-58.3493	230.928	13.0587	-4.18596	227.09	21.9446	-30.0812	208.197	34.9355	-44.5799	223.313	-3.91287	6.17096	229.104	-5.98723	-13.8087	236.276	-9.64594	-28.357	226.366	7.48249	42.4197	221.923	0.855808	63.2473	233.817	26.7236	55.8059	
